<svg width="25" height="24" viewBox="0 0 25 24" fill="none" xmlns="http://www.w3.org/2000/svg">
<path fill-rule="evenodd" clip-rule="evenodd" d="M6.99998 1.75C7.19889 1.75 7.38965 1.82902 7.53031 1.96967C7.67096 2.11032 7.74998 2.30109 7.74998 2.5V3.263C8.41198 3.25 9.14098 3.25 9.94298 3.25H14.056C14.859 3.25 15.588 3.25 16.25 3.263V2.5C16.25 2.30109 16.329 2.11032 16.4696 1.96967C16.6103 1.82902 16.8011 1.75 17 1.75C17.1989 1.75 17.3897 1.82902 17.5303 1.96967C17.671 2.11032 17.75 2.30109 17.75 2.5V3.327C18.01 3.347 18.2563 3.37233 18.489 3.403C19.661 3.561 20.61 3.893 21.359 4.641C22.107 5.39 22.439 6.339 22.597 7.511C22.75 8.651 22.75 10.106 22.75 11.944V14.056C22.75 15.894 22.75 17.35 22.597 18.489C22.439 19.661 22.107 20.61 21.359 21.359C20.61 22.107 19.661 22.439 18.489 22.597C17.349 22.75 15.894 22.75 14.056 22.75H9.94498C8.10698 22.75 6.65098 22.75 5.51198 22.597C4.33998 22.439 3.39098 22.107 2.64198 21.359C1.89398 20.61 1.56198 19.661 1.40398 18.489C1.25098 17.349 1.25098 15.894 1.25098 14.056V11.944C1.25098 10.106 1.25098 8.65 1.40398 7.511C1.56198 6.339 1.89398 5.39 2.64198 4.641C3.39098 3.893 4.33998 3.561 5.51198 3.403C5.74531 3.37233 5.99164 3.347 6.25098 3.327V2.5C6.25098 2.30126 6.32986 2.11065 6.47029 1.97002C6.61073 1.8294 6.80124 1.75026 6.99998 1.75ZM5.70998 4.89C4.70498 5.025 4.12498 5.279 3.70198 5.702C3.27898 6.125 3.02498 6.705 2.88998 7.71C2.86731 7.88 2.84798 8.05967 2.83198 8.249H21.168C21.152 8.05967 21.1326 7.87967 21.11 7.709C20.975 6.704 20.721 6.124 20.298 5.701C19.875 5.278 19.295 5.024 18.289 4.889C17.262 4.751 15.907 4.749 14 4.749H9.99998C8.09298 4.749 6.73898 4.752 5.70998 4.89ZM2.74998 12C2.74998 11.146 2.74998 10.403 2.76298 9.75H21.237C21.25 10.403 21.25 11.146 21.25 12V14C21.25 15.907 21.248 17.262 21.11 18.29C20.975 19.295 20.721 19.875 20.298 20.298C19.875 20.721 19.295 20.975 18.289 21.11C17.262 21.248 15.907 21.25 14 21.25H9.99998C8.09298 21.25 6.73898 21.248 5.70998 21.11C4.70498 20.975 4.12498 20.721 3.70198 20.298C3.27898 19.875 3.02498 19.295 2.88998 18.289C2.75198 17.262 2.74998 15.907 2.74998 14V12Z" fill="black"/>
</svg>
