<svg width="31" height="36" viewBox="0 0 31 36" fill="none" xmlns="http://www.w3.org/2000/svg">
<path d="M27.3438 2.79248C29.1211 2.79248 30.625 4.29639 30.625 6.07373V30.1362C30.625 31.9819 29.1211 33.4175 27.3438 33.4175H17.9102V23.0269H21.875L22.627 18.105H17.9102V14.9604C17.9102 13.5933 18.5938 12.2944 20.7129 12.2944H22.832V8.12451C22.832 8.12451 20.918 7.78271 19.0039 7.78271C15.1758 7.78271 12.6465 10.1753 12.6465 14.4136V18.105H8.33984V23.0269H12.6465V33.4175H3.28125C1.43555 33.4175 0 31.9819 0 30.1362V6.07373C0 4.29639 1.43555 2.79248 3.28125 2.79248H27.3438Z" fill="white"/>
</svg>
