<svg width="31" height="36" viewBox="0 0 31 36" fill="none" xmlns="http://www.w3.org/2000/svg">
<path d="M27.4238 2.79248C29.2012 2.79248 30.7051 4.29639 30.7051 6.07373V30.1362C30.7051 31.9819 29.2012 33.4175 27.4238 33.4175H3.36133C1.51562 33.4175 0.0800781 31.9819 0.0800781 30.1362V6.07373C0.0800781 4.29639 1.51562 2.79248 3.36133 2.79248H27.4238ZM24.0742 13.6616C24.8945 13.0464 25.7148 12.2261 26.3301 11.3374C25.5098 11.6792 24.6211 11.9526 23.7324 12.021C24.6211 11.4741 25.373 10.6538 25.7148 9.56006C24.8262 10.1069 23.8691 10.4487 22.8438 10.6538C22.0234 9.76514 20.8613 9.21826 19.5625 9.21826C16.8281 9.21826 14.5723 11.7476 15.1875 14.7554C11.4961 14.5503 8.14648 12.7729 5.95898 10.0386C5.54883 10.7222 5.34375 11.4741 5.34375 12.3628C5.34375 13.8667 6.0957 15.2339 7.32617 16.0542C6.57422 16.0542 5.89062 15.8491 5.34375 15.5073V15.5757C5.34375 17.7632 6.84766 19.5405 8.89844 19.9507C8.21484 20.1558 7.59961 20.1558 6.84766 20.019C7.46289 21.7964 9.10352 23.0952 11.0859 23.1636C9.51367 24.3257 7.59961 25.0776 5.48047 25.0776C5.13867 25.0776 4.79688 25.0776 4.45508 25.0093C6.4375 26.3081 8.76172 26.9917 11.291 26.9917C19.5625 26.9917 24.0742 20.1558 24.0742 14.2769C24.0742 14.0718 24.0742 13.8667 24.0742 13.6616Z" fill="white"/>
</svg>
