<svg width="31" height="36" viewBox="0 0 31 36" fill="none" xmlns="http://www.w3.org/2000/svg">
<path d="M28.5977 2.79248C29.7598 2.79248 30.7852 3.81787 30.7852 5.04834V31.23C30.7852 32.4604 29.7598 33.4175 28.5977 33.4175H2.2793C1.11719 33.4175 0.160156 32.4604 0.160156 31.23V5.04834C0.160156 3.81787 1.11719 2.79248 2.2793 2.79248H28.5977ZM9.38867 29.0425V14.4819H4.87695V29.0425H9.38867ZM7.13281 12.4312C8.56836 12.4312 9.73047 11.269 9.73047 9.8335C9.73047 8.39795 8.56836 7.16748 7.13281 7.16748C5.62891 7.16748 4.4668 8.39795 4.4668 9.8335C4.4668 11.269 5.62891 12.4312 7.13281 12.4312ZM26.4102 29.0425V21.0444C26.4102 17.1479 25.5215 14.0718 20.9414 14.0718C18.7539 14.0718 17.25 15.3022 16.6348 16.4644H16.5664V14.4819H12.2598V29.0425H16.7715V21.8647C16.7715 19.9507 17.1133 18.105 19.5059 18.105C21.8301 18.105 21.8301 20.2925 21.8301 21.9331V29.0425H26.4102Z" fill="white"/>
</svg>
