<svg width="31" height="36" viewBox="0 0 31 36" fill="none" xmlns="http://www.w3.org/2000/svg">
<path d="M15.543 14.4819C17.5254 14.4819 19.166 16.1226 19.166 18.105C19.166 20.1558 17.5254 21.7964 15.543 21.7964C13.4922 21.7964 11.8516 20.1558 11.8516 18.105C11.8516 16.1226 13.4922 14.4819 15.543 14.4819ZM24.0195 11.6792C24.6348 13.1147 24.498 16.5327 24.498 18.105C24.498 19.7456 24.6348 23.1636 24.0195 24.5991C23.6777 25.5562 22.9258 26.3081 21.9688 26.6499C20.5332 27.2651 17.1152 27.1284 15.543 27.1284C13.9023 27.1284 10.4844 27.2651 9.04883 26.6499C8.0918 26.3081 7.33984 25.5562 6.99805 24.5991C6.45117 23.1636 6.51953 19.7456 6.51953 18.105C6.51953 16.5327 6.45117 13.1147 6.99805 11.6792C7.33984 10.7222 8.0918 9.97021 9.04883 9.62842C10.4844 9.01318 13.9023 9.1499 15.543 9.1499C17.1152 9.1499 20.5332 9.01318 21.9688 9.62842C22.9258 9.97021 23.6777 10.7222 24.0195 11.6792ZM15.543 23.7104V23.7788C18.6191 23.7788 21.1484 21.2495 21.1484 18.1733V18.105C21.1484 15.0288 18.6191 12.4995 15.543 12.4995C12.3984 12.4995 9.9375 15.0288 9.9375 18.105C9.9375 21.2495 12.3984 23.7104 15.543 23.7104ZM21.3535 13.5933C22.0371 13.5933 22.6523 13.0464 22.6523 12.2944C22.6523 11.5425 22.0371 10.9956 21.3535 10.9956C20.6016 10.9956 20.0547 11.5425 20.0547 12.2944C20.0547 13.0464 20.6016 13.5933 21.3535 13.5933ZM27.5742 2.79248C29.3516 2.79248 30.8555 4.29639 30.8555 6.07373V30.1362C30.8555 31.9819 29.3516 33.4175 27.5742 33.4175H3.51172C1.66602 33.4175 0.230469 31.9819 0.230469 30.1362V6.07373C0.230469 4.29639 1.66602 2.79248 3.51172 2.79248H27.5742ZM26.3438 22.6167C26.4805 20.8394 26.4805 15.439 26.3438 13.6616C26.2754 11.8843 25.8652 10.312 24.6348 9.08154C23.3359 7.78271 21.7637 7.37256 20.0547 7.3042C18.209 7.16748 12.8086 7.16748 11.0312 7.3042C9.25391 7.37256 7.68164 7.78271 6.45117 9.01318C5.15234 10.312 4.74219 11.8843 4.67383 13.5933C4.53711 15.439 4.53711 20.8394 4.67383 22.6167C4.74219 24.394 5.15234 25.9663 6.45117 27.1968C7.68164 28.4956 9.25391 28.9058 11.0312 28.9741C12.8086 29.1108 18.209 29.1108 20.0547 28.9741C21.7637 28.9058 23.3359 28.4956 24.6348 27.1968C25.8652 25.9663 26.2754 24.394 26.3438 22.6167Z" fill="white"/>
</svg>
